{
	"asset":{
		"generator":"Khronos glTF Blender I/O v5.1.19",
		"version":"2.0"
	},
	"extensionsUsed":[
		"KHR_materials_emissive_strength"
	],
	"scene":0,
	"scenes":[
		{
			"name":"Scene",
			"nodes":[
				0,
				1,
				2,
				3
			]
		}
	],
	"nodes":[
		{
			"mesh":0,
			"name":"wall",
			"scale":[
				8.912995338439941,
				6.728187561035156,
				8.912995338439941
			],
			"translation":[
				-0.009756164625287056,
				0,
				-0.05027158558368683
			]
		},
		{
			"mesh":1,
			"name":"CEILING",
			"scale":[
				9.116923332214355,
				6.882127285003662,
				9.116923332214355
			],
			"translation":[
				0.0698450356721878,
				3.4343209266662598,
				-0.12338456511497498
			]
		},
		{
			"mesh":2,
			"name":"LIGHTS",
			"scale":[
				9.116923332214355,
				6.882127285003662,
				9.116923332214355
			],
			"translation":[
				0.0698450356721878,
				3.4343209266662598,
				-0.12338456511497498
			]
		},
		{
			"mesh":3,
			"name":"Carpet",
			"scale":[
				8.912995338439941,
				6.728187561035156,
				8.912995338439941
			],
			"translation":[
				-0.009756164625287056,
				0,
				-0.05027158558368683
			]
		}
	],
	"materials":[
		{
			"doubleSided":true,
			"name":"Material.001",
			"pbrMetallicRoughness":{
				"baseColorTexture":{
					"index":0
				},
				"metallicFactor":0,
				"roughnessFactor":0.6409090757369995
			}
		},
		{
			"doubleSided":true,
			"name":"Material.002",
			"pbrMetallicRoughness":{
				"metallicFactor":0
			}
		},
		{
			"doubleSided":true,
			"name":"Material.003",
			"pbrMetallicRoughness":{
				"baseColorFactor":[
					0.800000011920929,
					0.800000011920929,
					0.800000011920929,
					1
				],
				"roughnessFactor":0.9136363863945007
			}
		},
		{
			"doubleSided":true,
			"emissiveFactor":[
				1,
				0.8728374242782593,
				0.5502357482910156
			],
			"extensions":{
				"KHR_materials_emissive_strength":{
					"emissiveStrength":5.399999618530273
				}
			},
			"name":"Material.004",
			"pbrMetallicRoughness":{
				"baseColorFactor":[
					0,
					0,
					0,
					1
				]
			}
		},
		{
			"doubleSided":true,
			"name":"carpet",
			"pbrMetallicRoughness":{
				"baseColorTexture":{
					"index":1
				},
				"metallicFactor":0
			}
		}
	],
	"meshes":[
		{
			"name":"Plane",
			"primitives":[
				{
					"attributes":{
						"POSITION":0,
						"NORMAL":1,
						"TEXCOORD_0":2
					},
					"indices":3,
					"material":0
				}
			]
		},
		{
			"name":"Plane.001",
			"primitives":[
				{
					"attributes":{
						"POSITION":4,
						"NORMAL":5,
						"TEXCOORD_0":6
					},
					"indices":7,
					"material":1
				},
				{
					"attributes":{
						"POSITION":8,
						"NORMAL":9,
						"TEXCOORD_0":10
					},
					"indices":11,
					"material":2
				}
			]
		},
		{
			"name":"Plane.002",
			"primitives":[
				{
					"attributes":{
						"POSITION":12,
						"NORMAL":13,
						"TEXCOORD_0":14
					},
					"indices":15,
					"material":3
				}
			]
		},
		{
			"name":"Plane.003",
			"primitives":[
				{
					"attributes":{
						"POSITION":16,
						"NORMAL":17,
						"TEXCOORD_0":18
					},
					"indices":19,
					"material":4
				}
			]
		}
	],
	"textures":[
		{
			"sampler":0,
			"source":0
		},
		{
			"sampler":0,
			"source":1
		}
	],
	"images":[
		{
			"mimeType":"image/jpeg",
			"name":"the_backrooms_wallpaper__seamless__by_dalay_lamma_df1ci3n-fullview",
			"uri":"the_backrooms_wallpaper__seamless__by_dalay_lamma_df1ci3n-fullview.jpg"
		},
		{
			"mimeType":"image/png",
			"name":"BackRoomsCarpet",
			"uri":"BackRoomsCarpet.png"
		}
	],
	"accessors":[
		{
			"bufferView":0,
			"componentType":5126,
			"count":16,
			"max":[
				1,
				0.738357663154602,
				1
			],
			"min":[
				-1,
				0,
				-1
			],
			"type":"VEC3"
		},
		{
			"bufferView":1,
			"componentType":5126,
			"count":16,
			"type":"VEC3"
		},
		{
			"bufferView":2,
			"componentType":5126,
			"count":16,
			"type":"VEC2"
		},
		{
			"bufferView":3,
			"componentType":5123,
			"count":24,
			"type":"SCALAR"
		},
		{
			"bufferView":4,
			"componentType":5126,
			"count":560,
			"max":[
				0.9913749694824219,
				0,
				0.9913749694824219
			],
			"min":[
				-0.9913749694824219,
				0,
				-0.9913749694824219
			],
			"type":"VEC3"
		},
		{
			"bufferView":5,
			"componentType":5126,
			"count":560,
			"type":"VEC3"
		},
		{
			"bufferView":6,
			"componentType":5126,
			"count":560,
			"type":"VEC2"
		},
		{
			"bufferView":7,
			"componentType":5123,
			"count":840,
			"type":"SCALAR"
		},
		{
			"bufferView":8,
			"componentType":5126,
			"count":806,
			"max":[
				1,
				0,
				1
			],
			"min":[
				-1,
				0,
				-1
			],
			"type":"VEC3"
		},
		{
			"bufferView":9,
			"componentType":5126,
			"count":806,
			"type":"VEC3"
		},
		{
			"bufferView":10,
			"componentType":5126,
			"count":806,
			"type":"VEC2"
		},
		{
			"bufferView":11,
			"componentType":5123,
			"count":3744,
			"type":"SCALAR"
		},
		{
			"bufferView":12,
			"componentType":5126,
			"count":64,
			"max":[
				0.6836826801300049,
				0,
				0.8247082829475403
			],
			"min":[
				-0.8375288248062134,
				0,
				-0.8247083425521851
			],
			"type":"VEC3"
		},
		{
			"bufferView":13,
			"componentType":5126,
			"count":64,
			"type":"VEC3"
		},
		{
			"bufferView":14,
			"componentType":5126,
			"count":64,
			"type":"VEC2"
		},
		{
			"bufferView":15,
			"componentType":5123,
			"count":96,
			"type":"SCALAR"
		},
		{
			"bufferView":16,
			"componentType":5126,
			"count":4,
			"max":[
				1,
				0,
				1
			],
			"min":[
				-1,
				0,
				-1
			],
			"type":"VEC3"
		},
		{
			"bufferView":17,
			"componentType":5126,
			"count":4,
			"type":"VEC3"
		},
		{
			"bufferView":18,
			"componentType":5126,
			"count":4,
			"type":"VEC2"
		},
		{
			"bufferView":19,
			"componentType":5123,
			"count":6,
			"type":"SCALAR"
		}
	],
	"bufferViews":[
		{
			"buffer":0,
			"byteLength":192,
			"byteOffset":0,
			"target":34962
		},
		{
			"buffer":0,
			"byteLength":192,
			"byteOffset":192,
			"target":34962
		},
		{
			"buffer":0,
			"byteLength":128,
			"byteOffset":384,
			"target":34962
		},
		{
			"buffer":0,
			"byteLength":48,
			"byteOffset":512,
			"target":34963
		},
		{
			"buffer":0,
			"byteLength":6720,
			"byteOffset":560,
			"target":34962
		},
		{
			"buffer":0,
			"byteLength":6720,
			"byteOffset":7280,
			"target":34962
		},
		{
			"buffer":0,
			"byteLength":4480,
			"byteOffset":14000,
			"target":34962
		},
		{
			"buffer":0,
			"byteLength":1680,
			"byteOffset":18480,
			"target":34963
		},
		{
			"buffer":0,
			"byteLength":9672,
			"byteOffset":20160,
			"target":34962
		},
		{
			"buffer":0,
			"byteLength":9672,
			"byteOffset":29832,
			"target":34962
		},
		{
			"buffer":0,
			"byteLength":6448,
			"byteOffset":39504,
			"target":34962
		},
		{
			"buffer":0,
			"byteLength":7488,
			"byteOffset":45952,
			"target":34963
		},
		{
			"buffer":0,
			"byteLength":768,
			"byteOffset":53440,
			"target":34962
		},
		{
			"buffer":0,
			"byteLength":768,
			"byteOffset":54208,
			"target":34962
		},
		{
			"buffer":0,
			"byteLength":512,
			"byteOffset":54976,
			"target":34962
		},
		{
			"buffer":0,
			"byteLength":192,
			"byteOffset":55488,
			"target":34963
		},
		{
			"buffer":0,
			"byteLength":48,
			"byteOffset":55680,
			"target":34962
		},
		{
			"buffer":0,
			"byteLength":48,
			"byteOffset":55728,
			"target":34962
		},
		{
			"buffer":0,
			"byteLength":32,
			"byteOffset":55776,
			"target":34962
		},
		{
			"buffer":0,
			"byteLength":12,
			"byteOffset":55808,
			"target":34963
		}
	],
	"samplers":[
		{
			"magFilter":9729,
			"minFilter":9987
		}
	],
	"buffers":[
		{
			"byteLength":55820,
			"uri":"Backroosm.bin"
		}
	]
}
